<?xml version="1.0" encoding="utf-8"?>
<!-- Generator: Adobe Illustrator 26.4.1, SVG Export Plug-In . SVG Version: 6.00 Build 0)  -->
<svg version="1.1" id="FLAT_new"
    xmlns="http://www.w3.org/2000/svg"
    xmlns:xlink="http://www.w3.org/1999/xlink" x="0px" y="0px" viewBox="0 0 1187 810" style="enable-background:new 0 0 1187 810;" xml:space="preserve">
    <style type="text/css">
        .text, .swoosh { fill: #FFFFFF; }
        .wrench{ fill: #DD2740; }
        #text { filter: drop-shadow(7px 7px 6px #333); }
    </style>
    <g id="graphics">
        <path id="swoosh_1" class="swoosh" d="M615.1,680.1c-5,3.9-10.9,3.2-3.8-3.6s53.2-45.2,98.4-80.2c106.8-82.7,195-175.9,248.4-262.5
            c25.6-41.6,41.7-79.2,47.8-111.8c6-32.2,1.9-57.8-12.2-76s-37.8-28.6-70.5-30.9c-4.5-0.3-9.1-0.5-13.8-0.5
            c-30.3,0-66.1,6.3-106.4,18.7c-97.2,30-209.6,92-316.4,174.6c-106.8,82.7-195,175.9-248.4,262.5c-25.6,41.6-41.7,79.2-47.8,111.8
            c-6,32.2-1.9,57.8,12.2,76s37.8,28.6,70.5,30.9c33.1,2.3,73.6-3.9,120.3-18.2c14.5-4.5,47.8-15.7,69-36.3
            c36.8-35.8,68.8-78.4,90.4-57.9c29.2,27.7-111.6,99.3-153.8,112.3c-42.4,13-80.1,19.5-112.1,19.5c-45.3,0-79.3-13-99.2-38.7
            C153.6,726,165.8,651.7,222,560.5C276.6,472,366.4,376.9,475,292.9c108.6-84,223.1-147.1,322.5-177.7
            c102.4-31.5,177.4-24.7,211.4,19.1c33.9,43.9,21.7,118.2-34.5,209.4C919.8,432.3,824.2,523.9,715.7,608
            C659.3,651.6,620,676.2,615.1,680.1z" />
        <path id="swoosh_2" class="swoosh" d="M611.4,119.1c8.8,6.5,63.9,35.5,133.8,105.3c90.8,90.8,161,191.5,197.7,283.7
            c37.7,94.7,35.6,169.7-6,211.3c-21.8,21.8-52.9,32.8-91.2,32.8c-34.6,0-75.1-8.9-120-26.8c-92.1-36.7-192.9-106.9-283.7-197.7
            c-90.8-90.8-161-191.5-197.7-283.7c-37.7-94.7-35.6-169.7,6-211.3C281.7,1.3,332.4-7.6,396.4,6.4c20.4,4.5,41.9,7.5,67.1,14.9
            c18.5,5.4,40.7,14.6,45.6,19.8c4.9,5.2,10.3,18.7,1.5,27.3c-8.7,8.6-31.9,0.6-31.9,0.6c-18.9-9.9-27.5-23-51.5-34.5
            c-20.6-9.8-58.3-22.9-87.4-22c-40,1.3-58.5,16-76.2,33.7s-26.9,43.4-27.2,76.2c-0.3,33,8.3,71.5,25.4,114.6
            c35.7,89.8,104.5,188.2,193.5,277.3S642.8,672,732.6,707.8c43.1,17.2,81.6,25.7,114.6,25.4c32.8-0.3,58.5-9.4,76.2-27.2
            s26.9-43.4,27.2-76.2c0.3-33-8.3-71.5-25.4-114.6C889.4,425.4,820.7,327,731.7,237.9c-69.7-69.6-114-106.7-126.3-117.3
            C593,110,602.5,112.6,611.4,119.1z" />
        <path id="wrench" class="wrench" d="M342.8,735.8c-6.7-5.8,8.5-31.7,18-48.3c6.7-11.8,10.7-28.9-18.5-40.4s-46.6,2-56.6,22.5s-12.3,30.4-23.3,29.3
            c-11-1-16.5-84.1,3.9-100.8c10.2-8.4,19.2-16.5,50.3-20.7s47.1-1.5,75.2-29.6c28.1-28.1,338.7-327.5,353.5-345.4
            c23.2-28.1,9.6-68.6,15.4-89.6c5.8-21,29.9-39.8,43.5-48.2c13.6-8.4,46.6-32.5,58.7-25.1c12,7.3-21.9,46.3-30.2,63
            s-0.7,33.3,18.2,48.3s32.9,11.7,47.1-3.5c14.1-15.2,22.6-36,27.6-42.4c5-6.4,20-16.3,23.7,4.2c3.7,20.4-6.5,64.2-10.7,83.6
            s-27.4,38.3-45.4,39.5c-18,1.2-59.6-3.2-89.5,24.6C774,284.6,463.3,577.6,447.3,599.5c-16,21.8-14.8,31.1-14.8,56.2s-7,43.1-29,57.3
            C377.9,729.5,349.5,741.5,342.8,735.8z" />
    </g>
    <g id="text">
        <g id="Mechanics">
            <path class="text" d="M82.9,587.3c4.1,0,7.4-0.9,9.9-2.7c2.5-1.8,3.7-6.2,3.7-13.2l5.1-104.9l0.8-18.8c0-4.8-1.1-8.3-3.3-10.5
                c-2.2-2.2-5.1-3.2-8.5-3.2v-10.2l36.7,1.6l37.2-0.5l35.7,104.1l33.2-105.3l37.2,1.7l35.4-0.5v9.2c-3.8,0-6.5,0.8-8.4,2.4
                c-1.8,1.6-2.7,5.7-2.7,12.4l1,21.8l8.2,104.6c0,5.4,1.1,8.7,3.2,10.1c2.1,1.3,5.4,2,9.9,2v10.2l-39.8-1.6l-40.9,0.8v-9.4
                c4.6,0,8.2-0.7,10.8-2.2c2.6-1.4,3.9-5,3.9-10.8c0-2.9-0.3-7.4-0.8-13.5c-0.5-6.1-0.8-10.5-0.8-13l-4.9-68.7l-40.3,117.5h-32.9
                l-43.4-117.5l-3.3,72.4l-0.8,19.9c0,7,1.2,11.4,3.5,13.2s5.9,2.7,10.7,2.7v9.4c-3.3,0-8.1-0.1-14.4-0.4
                c-6.3-0.3-11.1-0.4-14.4-0.4c-3.8,0-8.1,0.1-13.1,0.3c-5,0.2-9.4,0.4-13.4,0.5L82.9,587.3L82.9,587.3z" />
            <path class="text" d="M324.8,492.8c0-2.5-0.6-4.4-1.8-5.8c-1.2-1.4-3.5-2-6.9-2v-7.1h100.7v7.1l1.4,25.1h-5.7
                c0-3.8-1.3-7.2-3.8-10c-2.5-2.8-6.2-4.3-11.1-4.3h-34.1v28.8h19.4c4.1,0,6.9-0.9,8.3-2.7c1.4-1.8,2.3-5.2,2.9-10.1h5.7
                l-1.1,21.4c0,2.4,0.2,6,0.5,11c0.4,5,0.5,8.7,0.5,11.2H394c-0.6-4.8-1.6-8.2-2.9-10s-4.1-2.8-8.3-2.8h-19.4v34.4h33.8
                c6,0,10.7-1.3,13.9-3.8c3.2-2.5,4.8-6.8,4.8-12.9h6.4l-2.7,35.7H316.1v-7.1c2.7,0,4.9-0.5,6.4-1.5c1.5-1,2.3-3.1,2.3-6.3
                L324.8,492.8L324.8,492.8z" />
            <path class="text" d="M522,588.8c-4.2,3.3-9.2,6-15.2,8.1c-6,2-11.8,3.1-17.3,3.1c-19.4,0-34.9-5.6-46.5-16.9
                c-11.5-11.3-17.3-27-17.3-47.2c0-19.3,6.2-34.5,18.7-45.5c12.4-11,28.1-16.5,47.1-16.5c4.7,0,9.3,0.5,13.7,1.4s8.6,2.4,12.6,4.5
                l2.1,38h-6.8c-1.5-6.8-4.3-12.3-8.2-16.6c-3.9-4.3-9-6.5-15.3-6.5c-8.4,0-14.7,3.3-18.9,9.9c-4.2,6.6-6.3,14.4-6.3,23.4
                c0,11.9,2.7,22.6,8.2,32.1c5.5,9.5,13.5,14.2,24.2,14.2c3.7,0,7.5-0.5,11.4-1.6s8.9-3.4,15.1-7L522,588.8z" />
            <path class="text" d="M526.8,589.9c2.7,0,4.9-0.5,6.4-1.5c1.5-1,2.3-3.1,2.3-6.3v-90.4c0-2.5-0.6-4.4-1.8-5.8
                c-1.2-1.4-3.5-2-6.9-2v-7.1l27.7,1.1l28.4-0.4v6.3c-3.5,0-5.9,0.7-7,2s-1.7,3.2-1.7,5.9V523h30.2v-31.2c0-3.1-0.8-5.2-2.3-6.2
                s-3.7-1.6-6.4-1.6v-7.1l28.4,1.1l27.7-0.4v6.3c-2.7,0-4.9,0.5-6.4,1.5c-1.5,1-2.3,3.1-2.3,6.3v90.4c0,2.5,0.6,4.4,1.8,5.8
                c1.2,1.4,3.5,2,6.9,2v7.1l-27.7-1.1l-28.4,0.6v-6.5c3.5,0,5.9-0.7,7-2c1.1-1.3,1.7-3.2,1.7-5.9v-36.8h-30.2v36.8
                c0,3.1,0.8,5.2,2.3,6.2s3.7,1.6,6.4,1.6v7.1l-28.4-1.1l-27.7,0.6V589.9z" />
            <path class="text" d="M648.3,589.9c2.8,0,5-0.9,6.4-2.8c1.4-1.9,3.2-6.2,5.3-13l23.3-72c1.9-6,2.8-10.3,2.8-13.2
                c0-3.3-2.6-5-7.8-5v-7.1l30,1.1l29-0.4l31.8,97.8c1.7,4.8,3.1,8.4,4.3,10.9s3.5,3.7,7.1,3.7v7.1l-30.7-1.1l-28.2,0.6v-6.5
                c2,0,3.9-0.4,5.8-1.1c1.8-0.7,2.8-2,2.8-3.7c0-2-0.3-4.2-0.9-6.5c-0.6-2.3-2.1-7.6-4.6-15.8h-38.7c-1.8,5.8-3.1,10.5-4,14
                c-0.9,3.5-1.3,6.2-1.3,8.1c0,2.5,1,3.9,2.8,4.4c1.9,0.4,3.8,0.7,5.9,0.7v7.1l-21.3-1.1c-2,0-5.2,0.1-9.6,0.3s-7.7,0.3-10,0.3
                L648.3,589.9L648.3,589.9z M719.5,544.9l-13.9-47l-14.4,47H719.5z" />
            <path class="text" d="M776.9,589.9c2.7,0,4.8-0.7,6.4-2.2c1.5-1.5,2.3-4,2.3-7.4v-87c0-3.7-0.8-6.2-2.5-7.4s-3.7-1.9-6.2-1.9
                v-7.1L805,478l24.2-0.4l42.5,62.5l0.4-0.4v-45c0-4-1-6.8-2.9-8.4s-4.8-2.4-8.6-2.4v-7.1l21.3,1.1c2.2,0,5.6-0.1,10.1-0.2
                c4.5-0.1,7.9-0.2,10.1-0.2v6.3c-2.1,0-4.1,0.6-6,1.8c-1.8,1.2-2.8,3.1-2.8,5.7V597h-27l-59-84.1l-0.4,66.8c0,4,1.2,6.7,3.7,8.1
                c2.5,1.4,5.4,2.1,8.7,2.1v6.5l-23.6-0.6c-2.7,0-5.8,0.1-9.2,0.4s-6.6,0.5-9.6,0.7L776.9,589.9L776.9,589.9z" />
            <path class="text" d="M907,589.9c2.7,0,4.8-0.5,6.4-1.5c1.5-1,2.3-3.1,2.3-6.3v-90.4c0-2.5-0.6-4.4-1.8-5.8c-1.2-1.4-3.5-2-6.9-2
                v-7.1l27.7,1.1l28.4-0.4v6.3c-3.5,0-5.9,0.7-7,2s-1.7,3.2-1.7,5.9v90.4c0,3.1,0.8,5.2,2.3,6.2s3.7,1.6,6.4,1.6v7.1l-28.4-1.1
                l-27.7,0.6V589.9z" />
            <path class="text" d="M1063.7,588.8c-4.2,3.3-9.2,6-15.2,8.1c-6,2-11.8,3.1-17.3,3.1c-19.4,0-34.9-5.6-46.5-16.9
                c-11.5-11.3-17.3-27-17.3-47.2c0-19.3,6.2-34.5,18.7-45.5c12.4-11,28.1-16.5,47.1-16.5c4.7,0,9.3,0.5,13.7,1.4s8.6,2.4,12.6,4.5
                l2.1,38h-6.8c-1.5-6.8-4.3-12.3-8.2-16.6c-3.9-4.3-9-6.5-15.3-6.5c-8.4,0-14.7,3.3-18.9,9.9c-4.2,6.6-6.3,14.4-6.3,23.4
                c0,11.9,2.7,22.6,8.2,32.1c5.5,9.5,13.5,14.2,24.2,14.2c3.7,0,7.5-0.5,11.4-1.6s8.9-3.4,15.1-7L1063.7,588.8z" />
            <path class="text" d="M1075.1,550.7c0,9.4,3.3,16.8,9.9,22.2c6.6,5.4,14.7,8.1,24.2,8.1c5.6,0,10.6-0.9,15.1-2.8s6.8-5.2,6.8-10
                c0-3.1-1.7-5.7-5-7.9c-3.3-2.2-10.5-4.8-21.4-7.8c-11-3-20-8-27.1-15c-7.1-6.9-10.7-15.7-10.7-26.2c0-11.5,4.7-20.7,14.1-27.3
                c9.4-6.7,21.6-10,36.5-10c8.6,0,15.8,0.7,21.6,2c5.7,1.3,12.1,3.4,18.9,6.4c0,3.9,0.2,9.8,0.7,17.8c0.5,7.9,0.7,13.9,0.7,17.8
                h-6.4c-1.1-8-4.7-14-10.8-17.9c-6.1-3.9-13.6-5.9-22.5-5.9c-5.7,0-10.2,0.7-13.5,2.1c-3.3,1.4-5,4.4-5,9c0,2.8,1.3,5,4,6.6
                s10.5,4.6,23.6,9.2s22.4,9.3,28.1,14.2c5.6,4.9,8.4,13.1,8.4,24.6c0,13.6-5.2,23.8-15.6,30.3s-23.4,9.9-39,9.9
                c-7.6,0-15.1-1-22.5-3.1c-7.4-2.1-13.8-5.3-19.1-9.6l-1.1-36.6L1075.1,550.7L1075.1,550.7z" />
        </g>
        <g id="Orbital">
            <path class="text" d="M190.6,198.1c27.8,0,51.2,9.6,70.2,28.7c19,19.1,28.5,43.1,28.5,71.9c0,27.7-10,50.6-30.1,68.7
                c-20,18.2-43.6,27.3-70.6,27.3c-27.2,0-50.4-9.5-69.7-28.4s-28.8-42.4-28.8-70.5c0-27.5,10-50.6,30.1-69.5
                S163.8,198.1,190.6,198.1z M196.5,361.6c8.8,0,15.7-3.6,20.8-10.7c5.1-7.2,7.7-19.6,7.7-37.4c0-18.4-3.4-36.7-10.1-55
                s-17.4-27.4-32.2-27.4c-10.3,0-17.5,4.5-21.8,13.3c-4.3,8.9-6.4,19-6.4,30.5c0,18.8,3.3,37.9,9.9,57.4
                C171.1,351.9,181.8,361.6,196.5,361.6z" />
            <path class="text" d="M291.5,381.9c3,0,5.3-0.5,7-1.6c1.7-1.1,2.5-3.3,2.5-6.8v-96c0-2.7-0.6-4.7-1.9-6.2
                c-1.3-1.5-3.8-2.2-7.5-2.2v-7.6h83.5c11.6,0,21.1,2.8,28.5,8.4s11.1,13.8,11.1,24.6c0,8.7-2.6,16-7.8,22
                c-5.2,6-12.1,9.8-20.5,11.4l24.7,44.8c1.8,3.2,3.4,5.5,4.9,7s3.7,2.2,6.7,2.2v7.6l-23.5-1.2l-23.9,0.6
                c-6.8-15.2-11.6-25.9-14.4-31.9c-2.8-6-5.4-11.2-7.9-15.6c-2.5-4.4-4.3-7.5-5.4-9.5c-1.1-1.9-1.6-3.6-1.6-5.1
                c0-1.6,1.6-2.7,4.9-3.2s6.6-1.1,9.9-1.6c4.5-1.1,8-3.3,10.5-6.7c2.5-3.4,3.8-7.8,3.8-13.2c0-13.5-8.8-20.3-26.2-20.3H343v92.6
                c0,2.7,1,4.6,3.1,5.7s4.7,1.7,7.9,1.7v7.6l-33-1.2l-29.5,0.6L291.5,381.9L291.5,381.9z" />
            <path class="text" d="M430.4,277.5c0-2.7-0.6-4.7-1.9-6.2c-1.3-1.5-3.8-2.2-7.5-2.2v-7.6h80.3c13.6,0,23.7,3.1,30.1,9.3
                c6.4,6.2,9.7,13.4,9.7,21.5c0,8.5-2.4,15.5-7.3,21s-11.7,8.9-20.5,10.4c9.7,0.3,17.8,3.2,24.5,8.7s10,13,10,22.5
                c0,13.1-4.2,21.9-12.5,26.5s-18.3,6.9-29.9,6.9H421v-7.6c3,0,5.3-0.5,7-1.6c1.7-1.1,2.5-3.3,2.5-6.8L430.4,277.5L430.4,277.5z
                M479,312.1c6.3,0,11.2-1.2,14.7-3.5s5.2-5.9,5.2-10.7c0-4.7-1.1-8.5-3.4-11.5s-7.4-4.5-15.3-4.5h-7.7v30.2H479z M482.9,367.9
                c7.2,0,12.8-1.3,16.8-3.8c4-2.5,6-7,6-13.4c0-6.7-2.1-11.6-6.4-14.7c-4.2-3.1-10.2-4.7-17.9-4.7h-8.9v36.6L482.9,367.9
                L482.9,367.9z" />
            <path class="text" d="M550.4,381.9c3,0,5.3-0.5,7-1.6c1.7-1.1,2.5-3.3,2.5-6.8v-97.2c0-2.7-0.7-4.7-1.9-6.2
                c-1.3-1.5-3.8-2.2-7.5-2.2v-7.6l30.1,1.2l30.9-0.4v6.8c-3.9,0-6.4,0.7-7.6,2.1s-1.8,3.5-1.8,6.3v97.2c0,3.3,0.8,5.6,2.5,6.7
                s4,1.7,7,1.7v7.6l-30.9-1.2l-30.1,0.6L550.4,381.9L550.4,381.9z" />
            <path class="text" d="M640.3,381.9c3.7,0,6.6-0.6,8.7-1.9s3.1-4,3.1-8.1v-87.6H644c-9.1,0-15.3,1.2-18.4,3.5
                c-3.2,2.4-5.8,7.8-7.8,16.5h-7.3c0.9-7.2,1.9-14.7,2.9-22.6s1.5-14.6,1.5-20.2h117.9c0,13.8,1,28,3.1,42.8h-7.3
                c-1.3-7.9-3.7-13.2-7.1-15.9c-3.5-2.7-9.6-4.1-18.3-4.1h-8.9v87.6c0,3.7,1.1,6.3,3.2,7.8s5.2,2.2,9.2,2.2v7.6l-33.6-1.2
                l-32.6,0.6V381.9z" />
            <path class="text" d="M725.6,381.9c3.1,0,5.4-1,7-3c1.5-2,3.5-6.7,5.8-14l25.3-77.4c2.1-6.4,3.1-11.1,3.1-14.2
                c0-3.6-2.8-5.4-8.5-5.4v-7.6l32.6,1.2l31.5-0.4l34.5,105.1c1.8,5.2,3.3,9.1,4.6,11.7c1.3,2.7,3.9,4,7.7,4v7.6l-33.4-1.2
                l-30.7,0.6v-7c2.2,0,4.3-0.4,6.3-1.2c2-0.8,3-2.1,3-4c0-2.1-0.3-4.5-1-7c-0.7-2.5-2.3-8.2-5-17h-42.1
                c-1.9,6.3-3.4,11.3-4.3,15.1s-1.5,6.7-1.5,8.7c0,2.7,1,4.2,3.1,4.7c2.1,0.5,4.2,0.7,6.4,0.7v7.6l-23.2-1.2
                c-2.2,0-5.7,0.1-10.4,0.3s-8.4,0.3-10.8,0.3L725.6,381.9L725.6,381.9z M802.9,333.5L787.9,283l-15.7,50.5H802.9z" />
            <path class="text" d="M873.7,276.3c0-2.7-0.7-4.7-1.9-6.2c-1.3-1.5-3.8-2.2-7.5-2.2v-7.6l28.4,1.2l35.7-0.4v6.8
                c-4.5,0-7.7,0.6-9.7,1.7c-1.9,1.1-2.9,3.8-2.9,7.9v88h30.1c7.6,0,12.6-2.2,15-6.7s4.2-10,5.3-16.5h7.3
                c-1.5,10.7-2.7,19.2-3.4,25.5S969,381,969,388.3H864.3v-7.6c3,0,5.3-0.5,7-1.6c1.7-1.1,2.5-3.3,2.5-6.8L873.7,276.3L873.7,276.3
                z" />
        </g>
        <g id="The">
            <path class="text" d="M307.4,189.4c2.9,0,5.2-0.5,6.8-1.4s2.4-3,2.4-6.2v-66.6h-6.4c-7.2,0-12,0.9-14.5,2.7
                c-2.5,1.8-4.5,6-6.2,12.5h-5.8c0.7-5.5,1.5-11.2,2.3-17.1c0.8-6,1.2-11.1,1.2-15.4h92.9c0,10.5,0.8,21.3,2.4,32.5h-5.8
                c-1-6-2.9-10-5.6-12.1s-7.5-3.1-14.4-3.1h-7v66.6c0,2.8,0.8,4.8,2.5,5.9s4.1,1.7,7.2,1.7v5.8l-26.5-0.9l-25.7,0.5L307.4,189.4
                L307.4,189.4z" />
            <path class="text" d="M389.6,189.4c2.3,0,4.1-0.4,5.5-1.2c1.3-0.8,2-2.5,2-5.2v-73.9c0-2-0.5-3.6-1.5-4.7c-1-1.1-3-1.7-5.9-1.7
                V97l23.7,0.9l24.3-0.3v5.2c-3,0-5,0.5-6,1.6c-1,1.1-1.4,2.7-1.4,4.8v25.5h25.8v-25.5c0-2.5-0.7-4.2-2-5.1s-3.1-1.3-5.5-1.3V97
                l24.3,0.9l23.7-0.3v5.2c-2.3,0-4.2,0.4-5.5,1.2c-1.3,0.8-2,2.5-2,5.2V183c0,2,0.5,3.6,1.5,4.7c1,1.1,3,1.7,5.9,1.7v5.8
                l-23.7-0.9l-24.3,0.5v-5.3c3,0,5-0.5,6-1.6c1-1.1,1.4-2.7,1.4-4.8v-30.1h-25.8V183c0,2.5,0.7,4.2,2,5.1s3.1,1.3,5.5,1.3v5.8
                l-24.3-0.9l-23.7,0.5V189.4z" />
            <path class="text" d="M515.3,110c0-2-0.5-3.6-1.5-4.7c-1-1.1-3-1.7-5.9-1.7v-5.8h86.2v5.8l1.2,20.5h-4.9c0-3.1-1.1-5.9-3.3-8.2
                s-5.3-3.5-9.5-3.5h-29.2V136H565c3.5,0,5.9-0.7,7.1-2.2c1.2-1.5,2-4.2,2.5-8.3h4.9l-0.9,17.5c0,1.9,0.2,4.9,0.5,9
                c0.3,4,0.5,7.1,0.5,9.1h-4.9c-0.5-4-1.3-6.7-2.5-8.2s-3.5-2.3-7.1-2.3h-16.6v28.1h28.9c5.2,0,9.1-1,11.9-3.1s4.1-5.6,4.1-10.6
                h5.5l-2.3,29.2h-88.6v-5.8c2.3,0,4.2-0.4,5.5-1.2c1.3-0.8,2-2.5,2-5.2L515.3,110L515.3,110z" />
        </g>
    </g>
</svg>
